<mxfile host="Electron" modified="2024-01-25T19:01:46.850Z" agent="Mozilla/5.0 (Windows NT 10.0; Win64; x64) AppleWebKit/537.36 (KHTML, like Gecko) draw.io/22.1.21 Chrome/120.0.6099.109 Electron/28.1.0 Safari/537.36" etag="204gEs21qPg-ANx4EA2q" version="22.1.21" type="device">
  <diagram id="R2lEEEUBdFMjLlhIrx00" name="Page-1">
    <mxGraphModel dx="800" dy="662" grid="1" gridSize="10" guides="1" tooltips="1" connect="1" arrows="1" fold="1" page="1" pageScale="1" pageWidth="850" pageHeight="1100" math="0" shadow="0" extFonts="Permanent Marker^https://fonts.googleapis.com/css?family=Permanent+Marker">
      <root>
        <mxCell id="0" />
        <mxCell id="1" parent="0" />
        <mxCell id="C-vyLk0tnHw3VtMMgP7b-1" value="" style="edgeStyle=entityRelationEdgeStyle;endArrow=ERoneToMany;startArrow=ERone;endFill=0;startFill=0;entryX=-0.011;entryY=1.1;entryDx=0;entryDy=0;entryPerimeter=0;" parent="1" source="C-vyLk0tnHw3VtMMgP7b-24" target="C-vyLk0tnHw3VtMMgP7b-17" edge="1">
          <mxGeometry width="100" height="100" relative="1" as="geometry">
            <mxPoint x="340" y="720" as="sourcePoint" />
            <mxPoint x="450" y="195" as="targetPoint" />
          </mxGeometry>
        </mxCell>
        <mxCell id="C-vyLk0tnHw3VtMMgP7b-13" value="BookFiles" style="shape=table;startSize=30;container=1;collapsible=1;childLayout=tableLayout;fixedRows=1;rowLines=0;fontStyle=1;align=center;resizeLast=1;" parent="1" vertex="1">
          <mxGeometry x="450" y="120" width="280" height="160" as="geometry" />
        </mxCell>
        <mxCell id="C-vyLk0tnHw3VtMMgP7b-14" value="" style="shape=partialRectangle;collapsible=0;dropTarget=0;pointerEvents=0;fillColor=none;points=[[0,0.5],[1,0.5]];portConstraint=eastwest;top=0;left=0;right=0;bottom=1;" parent="C-vyLk0tnHw3VtMMgP7b-13" vertex="1">
          <mxGeometry y="30" width="280" height="30" as="geometry" />
        </mxCell>
        <mxCell id="C-vyLk0tnHw3VtMMgP7b-15" value="PK" style="shape=partialRectangle;overflow=hidden;connectable=0;fillColor=none;top=0;left=0;bottom=0;right=0;fontStyle=1;" parent="C-vyLk0tnHw3VtMMgP7b-14" vertex="1">
          <mxGeometry width="30" height="30" as="geometry">
            <mxRectangle width="30" height="30" as="alternateBounds" />
          </mxGeometry>
        </mxCell>
        <mxCell id="C-vyLk0tnHw3VtMMgP7b-16" value="file_id INT" style="shape=partialRectangle;overflow=hidden;connectable=0;fillColor=none;top=0;left=0;bottom=0;right=0;align=left;spacingLeft=6;fontStyle=1;" parent="C-vyLk0tnHw3VtMMgP7b-14" vertex="1">
          <mxGeometry x="30" width="250" height="30" as="geometry">
            <mxRectangle width="250" height="30" as="alternateBounds" />
          </mxGeometry>
        </mxCell>
        <mxCell id="C-vyLk0tnHw3VtMMgP7b-17" value="" style="shape=partialRectangle;collapsible=0;dropTarget=0;pointerEvents=0;fillColor=none;points=[[0,0.5],[1,0.5]];portConstraint=eastwest;top=0;left=0;right=0;bottom=0;" parent="C-vyLk0tnHw3VtMMgP7b-13" vertex="1">
          <mxGeometry y="60" width="280" height="30" as="geometry" />
        </mxCell>
        <mxCell id="C-vyLk0tnHw3VtMMgP7b-18" value="FK1" style="shape=partialRectangle;overflow=hidden;connectable=0;fillColor=none;top=0;left=0;bottom=0;right=0;" parent="C-vyLk0tnHw3VtMMgP7b-17" vertex="1">
          <mxGeometry width="30" height="30" as="geometry">
            <mxRectangle width="30" height="30" as="alternateBounds" />
          </mxGeometry>
        </mxCell>
        <mxCell id="C-vyLk0tnHw3VtMMgP7b-19" value="book_id INTÂ REFERENCES Books(book_id)" style="shape=partialRectangle;overflow=hidden;connectable=0;fillColor=none;top=0;left=0;bottom=0;right=0;align=left;spacingLeft=6;" parent="C-vyLk0tnHw3VtMMgP7b-17" vertex="1">
          <mxGeometry x="30" width="250" height="30" as="geometry">
            <mxRectangle width="250" height="30" as="alternateBounds" />
          </mxGeometry>
        </mxCell>
        <mxCell id="C-vyLk0tnHw3VtMMgP7b-20" value="" style="shape=partialRectangle;collapsible=0;dropTarget=0;pointerEvents=0;fillColor=none;points=[[0,0.5],[1,0.5]];portConstraint=eastwest;top=0;left=0;right=0;bottom=0;" parent="C-vyLk0tnHw3VtMMgP7b-13" vertex="1">
          <mxGeometry y="90" width="280" height="30" as="geometry" />
        </mxCell>
        <mxCell id="C-vyLk0tnHw3VtMMgP7b-21" value="" style="shape=partialRectangle;overflow=hidden;connectable=0;fillColor=none;top=0;left=0;bottom=0;right=0;" parent="C-vyLk0tnHw3VtMMgP7b-20" vertex="1">
          <mxGeometry width="30" height="30" as="geometry">
            <mxRectangle width="30" height="30" as="alternateBounds" />
          </mxGeometry>
        </mxCell>
        <mxCell id="C-vyLk0tnHw3VtMMgP7b-22" value="file_size INT" style="shape=partialRectangle;overflow=hidden;connectable=0;fillColor=none;top=0;left=0;bottom=0;right=0;align=left;spacingLeft=6;" parent="C-vyLk0tnHw3VtMMgP7b-20" vertex="1">
          <mxGeometry x="30" width="250" height="30" as="geometry">
            <mxRectangle width="250" height="30" as="alternateBounds" />
          </mxGeometry>
        </mxCell>
        <mxCell id="w1WHxOcHsGFp58LqsqAg-7" style="shape=partialRectangle;collapsible=0;dropTarget=0;pointerEvents=0;fillColor=none;points=[[0,0.5],[1,0.5]];portConstraint=eastwest;top=0;left=0;right=0;bottom=0;" parent="C-vyLk0tnHw3VtMMgP7b-13" vertex="1">
          <mxGeometry y="120" width="280" height="30" as="geometry" />
        </mxCell>
        <mxCell id="w1WHxOcHsGFp58LqsqAg-8" style="shape=partialRectangle;overflow=hidden;connectable=0;fillColor=none;top=0;left=0;bottom=0;right=0;" parent="w1WHxOcHsGFp58LqsqAg-7" vertex="1">
          <mxGeometry width="30" height="30" as="geometry">
            <mxRectangle width="30" height="30" as="alternateBounds" />
          </mxGeometry>
        </mxCell>
        <mxCell id="w1WHxOcHsGFp58LqsqAg-9" value="file_format VARCHAR(20)" style="shape=partialRectangle;overflow=hidden;connectable=0;fillColor=none;top=0;left=0;bottom=0;right=0;align=left;spacingLeft=6;" parent="w1WHxOcHsGFp58LqsqAg-7" vertex="1">
          <mxGeometry x="30" width="250" height="30" as="geometry">
            <mxRectangle width="250" height="30" as="alternateBounds" />
          </mxGeometry>
        </mxCell>
        <mxCell id="w1WHxOcHsGFp58LqsqAg-48" style="edgeStyle=orthogonalEdgeStyle;rounded=0;orthogonalLoop=1;jettySize=auto;html=1;entryX=0.5;entryY=0;entryDx=0;entryDy=0;startArrow=ERmandOne;startFill=0;endArrow=ERoneToMany;endFill=0;" parent="1" source="C-vyLk0tnHw3VtMMgP7b-23" target="w1WHxOcHsGFp58LqsqAg-23" edge="1">
          <mxGeometry relative="1" as="geometry" />
        </mxCell>
        <mxCell id="C-vyLk0tnHw3VtMMgP7b-23" value="Books" style="shape=table;startSize=30;container=1;collapsible=1;childLayout=tableLayout;fixedRows=1;rowLines=0;fontStyle=1;align=center;resizeLast=1;" parent="1" vertex="1">
          <mxGeometry x="120" y="120" width="250" height="160" as="geometry" />
        </mxCell>
        <mxCell id="C-vyLk0tnHw3VtMMgP7b-24" value="" style="shape=partialRectangle;collapsible=0;dropTarget=0;pointerEvents=0;fillColor=none;points=[[0,0.5],[1,0.5]];portConstraint=eastwest;top=0;left=0;right=0;bottom=1;" parent="C-vyLk0tnHw3VtMMgP7b-23" vertex="1">
          <mxGeometry y="30" width="250" height="30" as="geometry" />
        </mxCell>
        <mxCell id="C-vyLk0tnHw3VtMMgP7b-25" value="PK" style="shape=partialRectangle;overflow=hidden;connectable=0;fillColor=none;top=0;left=0;bottom=0;right=0;fontStyle=1;" parent="C-vyLk0tnHw3VtMMgP7b-24" vertex="1">
          <mxGeometry width="30" height="30" as="geometry">
            <mxRectangle width="30" height="30" as="alternateBounds" />
          </mxGeometry>
        </mxCell>
        <mxCell id="C-vyLk0tnHw3VtMMgP7b-26" value="book_id INT" style="shape=partialRectangle;overflow=hidden;connectable=0;fillColor=none;top=0;left=0;bottom=0;right=0;align=left;spacingLeft=6;fontStyle=1;" parent="C-vyLk0tnHw3VtMMgP7b-24" vertex="1">
          <mxGeometry x="30" width="220" height="30" as="geometry">
            <mxRectangle width="220" height="30" as="alternateBounds" />
          </mxGeometry>
        </mxCell>
        <mxCell id="C-vyLk0tnHw3VtMMgP7b-27" value="" style="shape=partialRectangle;collapsible=0;dropTarget=0;pointerEvents=0;fillColor=none;points=[[0,0.5],[1,0.5]];portConstraint=eastwest;top=0;left=0;right=0;bottom=0;" parent="C-vyLk0tnHw3VtMMgP7b-23" vertex="1">
          <mxGeometry y="60" width="250" height="30" as="geometry" />
        </mxCell>
        <mxCell id="C-vyLk0tnHw3VtMMgP7b-28" value="" style="shape=partialRectangle;overflow=hidden;connectable=0;fillColor=none;top=0;left=0;bottom=0;right=0;" parent="C-vyLk0tnHw3VtMMgP7b-27" vertex="1">
          <mxGeometry width="30" height="30" as="geometry">
            <mxRectangle width="30" height="30" as="alternateBounds" />
          </mxGeometry>
        </mxCell>
        <mxCell id="C-vyLk0tnHw3VtMMgP7b-29" value="title VARCHAR(255)" style="shape=partialRectangle;overflow=hidden;connectable=0;fillColor=none;top=0;left=0;bottom=0;right=0;align=left;spacingLeft=6;" parent="C-vyLk0tnHw3VtMMgP7b-27" vertex="1">
          <mxGeometry x="30" width="220" height="30" as="geometry">
            <mxRectangle width="220" height="30" as="alternateBounds" />
          </mxGeometry>
        </mxCell>
        <mxCell id="w1WHxOcHsGFp58LqsqAg-1" style="shape=partialRectangle;collapsible=0;dropTarget=0;pointerEvents=0;fillColor=none;points=[[0,0.5],[1,0.5]];portConstraint=eastwest;top=0;left=0;right=0;bottom=0;" parent="C-vyLk0tnHw3VtMMgP7b-23" vertex="1">
          <mxGeometry y="90" width="250" height="30" as="geometry" />
        </mxCell>
        <mxCell id="w1WHxOcHsGFp58LqsqAg-2" style="shape=partialRectangle;overflow=hidden;connectable=0;fillColor=none;top=0;left=0;bottom=0;right=0;" parent="w1WHxOcHsGFp58LqsqAg-1" vertex="1">
          <mxGeometry width="30" height="30" as="geometry">
            <mxRectangle width="30" height="30" as="alternateBounds" />
          </mxGeometry>
        </mxCell>
        <mxCell id="w1WHxOcHsGFp58LqsqAg-3" value="author VARCHAR(255)" style="shape=partialRectangle;overflow=hidden;connectable=0;fillColor=none;top=0;left=0;bottom=0;right=0;align=left;spacingLeft=6;" parent="w1WHxOcHsGFp58LqsqAg-1" vertex="1">
          <mxGeometry x="30" width="220" height="30" as="geometry">
            <mxRectangle width="220" height="30" as="alternateBounds" />
          </mxGeometry>
        </mxCell>
        <mxCell id="w1WHxOcHsGFp58LqsqAg-4" style="shape=partialRectangle;collapsible=0;dropTarget=0;pointerEvents=0;fillColor=none;points=[[0,0.5],[1,0.5]];portConstraint=eastwest;top=0;left=0;right=0;bottom=0;" parent="C-vyLk0tnHw3VtMMgP7b-23" vertex="1">
          <mxGeometry y="120" width="250" height="30" as="geometry" />
        </mxCell>
        <mxCell id="w1WHxOcHsGFp58LqsqAg-5" style="shape=partialRectangle;overflow=hidden;connectable=0;fillColor=none;top=0;left=0;bottom=0;right=0;" parent="w1WHxOcHsGFp58LqsqAg-4" vertex="1">
          <mxGeometry width="30" height="30" as="geometry">
            <mxRectangle width="30" height="30" as="alternateBounds" />
          </mxGeometry>
        </mxCell>
        <mxCell id="w1WHxOcHsGFp58LqsqAg-6" value="published_date DATE" style="shape=partialRectangle;overflow=hidden;connectable=0;fillColor=none;top=0;left=0;bottom=0;right=0;align=left;spacingLeft=6;" parent="w1WHxOcHsGFp58LqsqAg-4" vertex="1">
          <mxGeometry x="30" width="220" height="30" as="geometry">
            <mxRectangle width="220" height="30" as="alternateBounds" />
          </mxGeometry>
        </mxCell>
        <mxCell id="w1WHxOcHsGFp58LqsqAg-10" value="Genres" style="shape=table;startSize=30;container=1;collapsible=1;childLayout=tableLayout;fixedRows=1;rowLines=0;fontStyle=1;align=center;resizeLast=1;" parent="1" vertex="1">
          <mxGeometry x="480" y="340" width="260" height="90" as="geometry" />
        </mxCell>
        <mxCell id="w1WHxOcHsGFp58LqsqAg-11" value="" style="shape=partialRectangle;collapsible=0;dropTarget=0;pointerEvents=0;fillColor=none;points=[[0,0.5],[1,0.5]];portConstraint=eastwest;top=0;left=0;right=0;bottom=1;" parent="w1WHxOcHsGFp58LqsqAg-10" vertex="1">
          <mxGeometry y="30" width="260" height="30" as="geometry" />
        </mxCell>
        <mxCell id="w1WHxOcHsGFp58LqsqAg-12" value="PK" style="shape=partialRectangle;overflow=hidden;connectable=0;fillColor=none;top=0;left=0;bottom=0;right=0;fontStyle=1;" parent="w1WHxOcHsGFp58LqsqAg-11" vertex="1">
          <mxGeometry width="30" height="30" as="geometry">
            <mxRectangle width="30" height="30" as="alternateBounds" />
          </mxGeometry>
        </mxCell>
        <mxCell id="w1WHxOcHsGFp58LqsqAg-13" value="genre_id INT" style="shape=partialRectangle;overflow=hidden;connectable=0;fillColor=none;top=0;left=0;bottom=0;right=0;align=left;spacingLeft=6;fontStyle=1;" parent="w1WHxOcHsGFp58LqsqAg-11" vertex="1">
          <mxGeometry x="30" width="230" height="30" as="geometry">
            <mxRectangle width="230" height="30" as="alternateBounds" />
          </mxGeometry>
        </mxCell>
        <mxCell id="w1WHxOcHsGFp58LqsqAg-14" value="" style="shape=partialRectangle;collapsible=0;dropTarget=0;pointerEvents=0;fillColor=none;points=[[0,0.5],[1,0.5]];portConstraint=eastwest;top=0;left=0;right=0;bottom=0;" parent="w1WHxOcHsGFp58LqsqAg-10" vertex="1">
          <mxGeometry y="60" width="260" height="30" as="geometry" />
        </mxCell>
        <mxCell id="w1WHxOcHsGFp58LqsqAg-15" value="" style="shape=partialRectangle;overflow=hidden;connectable=0;fillColor=none;top=0;left=0;bottom=0;right=0;" parent="w1WHxOcHsGFp58LqsqAg-14" vertex="1">
          <mxGeometry width="30" height="30" as="geometry">
            <mxRectangle width="30" height="30" as="alternateBounds" />
          </mxGeometry>
        </mxCell>
        <mxCell id="w1WHxOcHsGFp58LqsqAg-16" value="genre_name VARCHAR(50)" style="shape=partialRectangle;overflow=hidden;connectable=0;fillColor=none;top=0;left=0;bottom=0;right=0;align=left;spacingLeft=6;" parent="w1WHxOcHsGFp58LqsqAg-14" vertex="1">
          <mxGeometry x="30" width="230" height="30" as="geometry">
            <mxRectangle width="230" height="30" as="alternateBounds" />
          </mxGeometry>
        </mxCell>
        <mxCell id="w1WHxOcHsGFp58LqsqAg-49" style="edgeStyle=orthogonalEdgeStyle;rounded=0;orthogonalLoop=1;jettySize=auto;html=1;entryX=0;entryY=0.5;entryDx=0;entryDy=0;endArrow=ERmandOne;endFill=0;startArrow=ERoneToMany;startFill=0;" parent="1" source="w1WHxOcHsGFp58LqsqAg-23" target="w1WHxOcHsGFp58LqsqAg-11" edge="1">
          <mxGeometry relative="1" as="geometry" />
        </mxCell>
        <mxCell id="w1WHxOcHsGFp58LqsqAg-23" value="BookGenres" style="shape=table;startSize=30;container=1;collapsible=1;childLayout=tableLayout;fixedRows=1;rowLines=0;fontStyle=1;align=center;resizeLast=1;" parent="1" vertex="1">
          <mxGeometry x="80" y="340" width="330" height="90" as="geometry" />
        </mxCell>
        <mxCell id="w1WHxOcHsGFp58LqsqAg-24" value="" style="shape=partialRectangle;collapsible=0;dropTarget=0;pointerEvents=0;fillColor=none;points=[[0,0.5],[1,0.5]];portConstraint=eastwest;top=0;left=0;right=0;bottom=1;" parent="w1WHxOcHsGFp58LqsqAg-23" vertex="1">
          <mxGeometry y="30" width="330" height="30" as="geometry" />
        </mxCell>
        <mxCell id="w1WHxOcHsGFp58LqsqAg-25" value="PK, FK" style="shape=partialRectangle;overflow=hidden;connectable=0;fillColor=none;top=0;left=0;bottom=0;right=0;fontStyle=1;fontColor=default;labelBackgroundColor=none;labelBorderColor=none;" parent="w1WHxOcHsGFp58LqsqAg-24" vertex="1">
          <mxGeometry width="50" height="30" as="geometry">
            <mxRectangle width="50" height="30" as="alternateBounds" />
          </mxGeometry>
        </mxCell>
        <mxCell id="w1WHxOcHsGFp58LqsqAg-26" value="book_id INTÂ REFERENCES Books(book_id)" style="shape=partialRectangle;overflow=hidden;connectable=0;fillColor=none;top=1;left=0;bottom=0;right=0;align=left;spacingLeft=6;fontStyle=1;strokeColor=default;strokeWidth=1;fontColor=default;labelBackgroundColor=none;labelBorderColor=none;" parent="w1WHxOcHsGFp58LqsqAg-24" vertex="1">
          <mxGeometry x="50" width="280" height="30" as="geometry">
            <mxRectangle width="280" height="30" as="alternateBounds" />
          </mxGeometry>
        </mxCell>
        <mxCell id="w1WHxOcHsGFp58LqsqAg-44" style="shape=partialRectangle;collapsible=0;dropTarget=0;pointerEvents=0;fillColor=none;points=[[0,0.5],[1,0.5]];portConstraint=eastwest;top=0;left=0;right=0;bottom=1;" parent="w1WHxOcHsGFp58LqsqAg-23" vertex="1">
          <mxGeometry y="60" width="330" height="30" as="geometry" />
        </mxCell>
        <mxCell id="w1WHxOcHsGFp58LqsqAg-45" value="PK,FK" style="shape=partialRectangle;overflow=hidden;connectable=0;fillColor=none;top=0;left=0;bottom=0;right=0;fontStyle=1;" parent="w1WHxOcHsGFp58LqsqAg-44" vertex="1">
          <mxGeometry width="50" height="30" as="geometry">
            <mxRectangle width="50" height="30" as="alternateBounds" />
          </mxGeometry>
        </mxCell>
        <mxCell id="w1WHxOcHsGFp58LqsqAg-46" value="genre_id INTÂ REFERENCES Genres(genre_id)" style="shape=partialRectangle;overflow=hidden;connectable=0;fillColor=none;top=0;left=0;bottom=0;right=0;align=left;spacingLeft=6;fontStyle=1;" parent="w1WHxOcHsGFp58LqsqAg-44" vertex="1">
          <mxGeometry x="50" width="280" height="30" as="geometry">
            <mxRectangle width="280" height="30" as="alternateBounds" />
          </mxGeometry>
        </mxCell>
      </root>
    </mxGraphModel>
  </diagram>
</mxfile>
